name analog
datacolumns 19
datarows 37
range 0.0 0.018000000000000002
endheader
time	ground_force_vx	ground_force_vy	ground_force_vz	ground_force_px	ground_force_py	ground_force_pz	l_ground_force_vx	l_ground_force_vy	l_ground_force_vz	l_ground_force_px	l_ground_force_py	l_ground_force_pz	ground_torque_x	ground_torque_y	ground_torque_z	l_ground_torque_x	l_ground_torque_y	l_ground_torque_z
0.0	-0.0	-0.0	-0.0	-11.508155822753906	6.075572967529297	-735.3789672851562	8.087180137634277	-4.10610294342041	-76.28624725341797	-0.0	-0.0	-0.0	-0.0	-0.0	-0.0	30692.353515625	-16830.728515625	4256.36279296875
0.0005	-0.0	-0.0	-0.0	-11.135879516601562	6.164061546325684	-736.8502197265625	8.353348731994629	-3.797832489013672	-74.31208801269531	-0.0	-0.0	-0.0	-0.0	-0.0	-0.0	30431.576171875	-16620.87109375	4192.46630859375
0.001	-0.0	-0.0	-0.0	-11.43372631072998	5.896848678588867	-738.499267578125	8.014439582824707	-3.9006507396698	-74.66114044189453	-0.0	-0.0	-0.0	-0.0	-0.0	-0.0	30461.302734375	-16455.556640625	4112.953125
0.0015	-0.0	-0.0	-0.0	-10.838923454284668	6.3285651206970215	-740.4423217773438	7.835742473602295	-3.886154174804688	-75.35929870605469	-0.0	-0.0	-0.0	-0.0	-0.0	-0.0	30206.83984375	-16504.41015625	4103.10400390625
0.002	-0.0	-0.0	-0.0	-11.329734802246094	6.565968990325928	-739.3231811523438	7.791916370391846	-4.195734977722168	-75.24397277832031	-0.0	-0.0	-0.0	-0.0	-0.0	-0.0	30257.306640625	-16303.62890625	3949.793212890625
0.0025	-0.0	-0.0	-0.0	-11.136434555053713	6.26885986328125	-741.3244018554688	7.658443927764893	-3.664970874786377	-75.82359313964844	-0.0	-0.0	-0.0	-0.0	-0.0	-0.0	30030.318359375	-15970.943359375	3954.989501953125
0.003	-0.0	-0.0	-0.0	-11.537986755371094	6.432291030883789	-741.6778564453125	7.392384052276611	-4.195550918579102	-74.19364929199219	-0.0	-0.0	-0.0	-0.0	-0.0	-0.0	30124.513671875	-16083.6640625	3944.59521484375
0.0035	-0.0	-0.0	-0.0	-11.41944694519043	6.224189758300781	-742.3861694335938	7.658588886260986	-3.5032100677490234	-74.36929321289062	-0.0	-0.0	-0.0	-0.0	-0.0	-0.0	29998.169921875	-15981.7255859375	3811.40576171875
0.004	-0.0	-0.0	-0.0	-11.3147611618042	6.551401138305664	-745.5010375976562	7.422200679779053	-3.783338785171509	-73.90401458740234	-0.0	-0.0	-0.0	-0.0	-0.0	-0.0	29705.412109375	-15975.3798828125	3623.265380859375
0.0045000000000000005	-0.0	-0.0	-0.0	-11.596513748168944	6.239128112792969	-743.8564453125	7.126440525054932	-3.532867431640625	-72.79815673828125	-0.0	-0.0	-0.0	-0.0	-0.0	-0.0	29822.80859375	-15672.0751953125	3712.17578125
0.005	-0.0	-0.0	-0.0	-11.299640655517578	5.971736907958984	-743.9798583984375	7.495941638946533	-3.400742769241333	-73.84603881835938	-0.0	-0.0	-0.0	-0.0	-0.0	-0.0	29805.216796875	-15922.708984375	3771.720458984375
0.0055	-0.0	-0.0	-0.0	-11.210375785827637	6.47639799118042	-744.6774291992188	7.274284362792969	-3.532867431640625	-71.6929931640625	-0.0	-0.0	-0.0	-0.0	-0.0	-0.0	29360.205078125	-15751.431640625	3736.978515625
0.006	-0.0	-0.0	-0.0	-10.439072608947754	6.326817512512207	-746.85595703125	7.274284362792969	-3.503224849700928	-73.32183837890625	-0.0	-0.0	-0.0	-0.0	-0.0	-0.0	29667.353515625	-15828.71484375	3652.96044921875
0.006500000000000001	-0.0	-0.0	-0.0	-11.136168479919434	5.810267448425293	-746.3826293945312	7.377917766571045	-3.547724723815918	-72.85521697998047	-0.0	-0.0	-0.0	-0.0	-0.0	-0.0	29339.95703125	-15590.4609375	3623.35888671875
0.007	-0.0	-0.0	-0.0	-11.077284812927246	5.8086442947387695	-746.802734375	7.245409965515137	-3.5477609634399414	-73.3766098022461	-0.0	-0.0	-0.0	-0.0	-0.0	-0.0	29065.236328125	-15723.171875	3751.92529296875
0.0075	-0.0	-0.0	-0.0	-10.885714530944824	5.691182613372803	-746.8551635742188	7.185573577880859	-3.4743831157684326	-72.10215759277344	-0.0	-0.0	-0.0	-0.0	-0.0	-0.0	29158.91015625	-15600.5849609375	3637.873046875
0.008	-0.0	-0.0	-0.0	-11.04460906982422	5.291402339935303	-746.4501953125	7.260676383972168	-3.51650619506836	-72.56441497802734	-0.0	-0.0	-0.0	-0.0	-0.0	-0.0	29050.837890625	-15470.951171875	3682.13916015625
0.0085	-0.0	-0.0	-0.0	-10.570210456848145	5.673813343048096	-747.43994140625	7.1705169677734375	-3.312874794006348	-71.51681518554688	-0.0	-0.0	-0.0	-0.0	-0.0	-0.0	29105.955078125	-15350.0087890625	3588.572021484375
0.009000000000000001	-0.0	-0.0	-0.0	-11.136008262634276	5.941153526306152	-748.4384765625	7.362995147705078	-3.4445457458496094	-70.53564453125	-0.0	-0.0	-0.0	-0.0	-0.0	-0.0	28935.6484375	-15184.876953125	3569.685791015625
0.0095	-0.0	-0.0	-0.0	-11.163814544677734	5.658360958099365	-745.8058471679688	7.066626071929932	-3.265911340713501	-73.38134002685547	-0.0	-0.0	-0.0	-0.0	-0.0	-0.0	28993.755859375	-15480.2265625	3538.603515625
0.01	-0.0	-0.0	-0.0	-11.179010391235352	5.941007614135742	-746.37890625	6.830730438232422	-3.151611804962158	-71.63572692871094	-0.0	-0.0	-0.0	-0.0	-0.0	-0.0	28744.626953125	-15503.5322265625	3578.20361328125
0.0105	-0.0	-0.0	-0.0	-11.240524291992188	5.882606506347656	-745.0393676757812	7.02332878112793	-3.676952362060547	-70.5883560180664	-0.0	-0.0	-0.0	-0.0	-0.0	-0.0	28793.771484375	-15270.35546875	3573.110107421875
0.011	-0.0	-0.0	-0.0	-11.12385082244873	5.999175071716309	-745.406494140625	6.934654235839844	-3.267902374267578	-71.33657836914062	-0.0	-0.0	-0.0	-0.0	-0.0	-0.0	28420.759765625	-14995.7939453125	3465.478515625
0.0115	-0.0	-0.0	-0.0	-11.341578483581545	5.541544437408447	-746.0385131835938	6.830730438232422	-3.222355842590332	-69.830322265625	-0.0	-0.0	-0.0	-0.0	-0.0	-0.0	28494.533203125	-14779.3291015625	3474.732177734375
0.012	-0.0	-0.0	-0.0	-11.019390106201172	5.867121696472168	-745.393798828125	7.008152008056641	-3.39892315864563	-69.54129028320312	-0.0	-0.0	-0.0	-0.0	-0.0	-0.0	28253.595703125	-15078.6435546875	3518.818603515625
0.0125	-0.0	-0.0	-0.0	-11.675043106079102	6.045345783233643	-745.1798706054688	7.433241367340088	-3.2405552864074707	-70.0111083984375	-0.0	-0.0	-0.0	-0.0	-0.0	-0.0	28243.04296875	-14938.6982421875	3494.58056640625
0.013000000000000001	-0.0	-0.0	-0.0	-11.996703147888184	5.630773067474365	-745.6077880859375	6.390547752380371	-3.31038498878479	-69.93785858154297	-0.0	-0.0	-0.0	-0.0	-0.0	-0.0	28333.25390625	-14781.625	3345.476806640625
0.0135	-0.0	-0.0	-0.0	-12.159430503845217	5.510496616363525	-745.3775634765625	6.595352649688721	-2.929925441741944	-70.9848403930664	-0.0	-0.0	-0.0	-0.0	-0.0	-0.0	28235.45703125	-14744.3828125	3306.93896484375
0.014	-0.0	-0.0	-0.0	-12.048032760620115	5.494838237762451	-743.4000854492188	6.437175750732422	-3.091259002685547	-68.6156997680664	-0.0	-0.0	-0.0	-0.0	-0.0	-0.0	27935.466796875	-14809.57421875	3350.67578125
0.0145	-0.0	-0.0	-0.0	-12.179651260375977	5.232202529907227	-746.3742065429688	6.344810962677002	-3.267902374267578	-67.81188201904297	-0.0	-0.0	-0.0	-0.0	-0.0	-0.0	27761.04296875	-14852.7978515625	3296.390869140625
0.015	-0.0	-0.0	-0.0	-12.610102653503418	5.347824096679688	-744.3367309570312	6.387176513671875	-3.0604255199432373	-68.4337158203125	-0.0	-0.0	-0.0	-0.0	-0.0	-0.0	27832.9921875	-14572.2939453125	3226.789794921875
0.0155	-0.0	-0.0	-0.0	-12.32678508758545	5.520892143249512	-745.6045532226562	6.41819429397583	-3.049259901046753	-68.94889831542969	-0.0	-0.0	-0.0	-0.0	-0.0	-0.0	27781.423828125	-14560.357421875	3246.09033203125
0.016	-0.0	-0.0	-0.0	-12.263736724853516	5.567944526672363	-743.2993774414062	6.706369400024414	-2.607759714126587	-67.2638931274414	-0.0	-0.0	-0.0	-0.0	-0.0	-0.0	27818.517578125	-14610.3212890625	3227.091064453125
0.0165	-0.0	-0.0	-0.0	-12.536893844604492	5.175192832946777	-744.1724853515625	6.413561820983887	-2.8680765628814697	-68.49504089355469	-0.0	-0.0	-0.0	-0.0	-0.0	-0.0	27624.060546875	-14742.521484375	3261.666748046875
0.017	-0.0	-0.0	-0.0	-12.788769721984863	5.656887531280518	-744.0477294921875	6.768301486968994	-2.7379722595214844	-67.61255645751953	-0.0	-0.0	-0.0	-0.0	-0.0	-0.0	27507.35546875	-14422.0166015625	3162.513671875
0.0175	-0.0	-0.0	-0.0	-12.8463134765625	5.038869857788086	-744.4404907226562	6.387176513671875	-2.7379722595214844	-67.96142578125	-0.0	-0.0	-0.0	-0.0	-0.0	-0.0	27387.158203125	-14347.126953125	3134.264404296875
0.018000000000000002	-0.0	-0.0	-0.0	-12.9258451461792	5.363716125488281	-744.7305297851562	6.491567134857178	-2.6911394596099854	-67.16053771972656	-0.0	-0.0	-0.0	-0.0	-0.0	-0.0	27154.908203125	-14081.54296875	3078.507080078125
